<?xml version="1.0" encoding="UTF-8"?>
<svg width="265px" height="265px" viewBox="0 0 265 265" version="1.1" xmlns="http://www.w3.org/2000/svg" xmlns:xlink="http://www.w3.org/1999/xlink">
    <title>Group 8</title>
    <g id="Page-1" stroke="none" stroke-width="1" fill="none" fill-rule="evenodd">
        <g id="One-Color" transform="translate(-380.000000, -380.000000)">
            <g id="Group-8" transform="translate(379.999114, 379.999792)">
                <rect id="Rectangle" fill="#FF5C5A" x="133.000886" y="154.000208" width="46" height="47"></rect>
                <path d="M83.6058001,4.96520808 C116.0568,-1.66779192 148.8408,-1.68379192 181.2798,5.09020808 C220.6278,13.3072081 245.8448,37.5032081 256.5458,75.8872081 L256.5458,75.8872081 L256.6808,75.8892081 C261.8068,94.5222081 264.3448,113.267208 264.318998,132.014208 C264.3448,150.760208 261.8068,169.505208 256.6808,188.138208 L256.6808,188.138208 L256.5458,188.139208 C245.8448,226.524208 220.6278,250.720208 181.2798,258.936208 C148.8408,265.711208 116.0568,265.695208 83.6058001,259.062208 C44.9878001,251.169208 19.7828001,227.978208 8.62780012,191.048208 L8.62780012,191.048208 L8.53880012,191.049208 C2.73980012,171.479208 -0.0571998776,151.756208 0.0008861551,132.014208 C-0.0571998776,112.271208 2.73980012,92.5482081 8.53880012,72.9782081 L8.53880012,72.9782081 L8.62780012,72.9792081 C19.7828001,36.0482081 44.9878001,12.8582081 83.6058001,4.96520808 Z M164.7072,55.3565081 L123.0202,55.3565081 L122.858083,55.3628174 C122.053946,55.4255823 121.353575,55.9516956 121.0742,56.7195081 L121.0742,56.7195081 L70.4712001,195.752508 L70.4254827,195.892387 C70.0476876,197.199428 71.0278208,198.532508 72.4172001,198.532508 L72.4172001,198.532508 L114.1032,198.532508 L114.265493,198.526188 C115.070454,198.463313 115.770825,197.936321 116.0502,197.168508 L116.0502,197.168508 L166.6532,58.1365081 L166.698814,57.996533 C167.075647,56.6886555 166.094648,55.3565081 164.7072,55.3565081 L164.7072,55.3565081 Z M156.9179,155.998908 C156.4289,154.589908 154.4099,154.589908 153.9199,155.998908 C150.8069,164.957908 143.7399,172.055908 134.8019,175.217908 C133.4149,175.707908 133.4149,177.724908 134.8019,178.214908 C143.7389,181.376908 150.8059,188.473908 153.9189,197.431908 C154.4089,198.840908 156.4289,198.840908 156.9189,197.431908 C160.0319,188.472908 167.1009,181.374908 176.0389,178.213908 C177.4239,177.723908 177.4239,175.707908 176.0389,175.218908 C167.0999,172.056908 160.0309,164.958908 156.9179,155.998908 Z" id="Combined-Shape" fill="#2D36A8"></path>
            </g>
        </g>
    </g>
</svg>