<?xml version="1.0" encoding="UTF-8"?>
<svg width="257px" height="50px" viewBox="0 0 257 50" version="1.1" xmlns="http://www.w3.org/2000/svg" xmlns:xlink="http://www.w3.org/1999/xlink">
    <title>Group 17</title>
    <defs>
        <polygon id="path-1" points="-7.05983935e-16 0 257 0 257 50 -7.05983935e-16 50"></polygon>
    </defs>
    <g id="Page-1" stroke="none" stroke-width="1" fill="none" fill-rule="evenodd">
        <g id="Contact" transform="translate(-173.000000, -97.000000)">
            <g id="Group-17" transform="translate(173.000000, 97.000000)">
                <polygon id="Fill-1" fill="#2D36A8" points="65 9 69.3561284 9 69.3561284 30.9883739 80 30.9883739 80 35 65 35"></polygon>
                <g id="Group-16">
                    <mask id="mask-2" fill="white">
                        <use xlink:href="#path-1"></use>
                    </mask>
                    <g id="Clip-3"></g>
                    <path d="M83.5471658,35.594198 L87.6396454,35.594198 L87.6396454,17.9626168 L83.5471658,17.9626168 L83.5471658,35.594198 Z M83.1214468,12.3628623 C83.1214468,10.9914295 84.1286483,9.89375782 85.5936687,9.89375782 C87.0586891,9.89375782 88.0664168,10.9914295 88.0664168,12.3628623 C88.0664168,13.7342951 87.0586891,14.8314413 85.5936687,14.8314413 C84.1286483,14.8314413 83.1214468,13.7342951 83.1214468,12.3628623 L83.1214468,12.3628623 Z" id="Fill-2" fill="#2D36A8" mask="url(#mask-2)"></path>
                    <path d="M105.371917,26.7784599 C105.371917,23.7513242 103.515383,21.1787055 100.142784,21.1787055 C97.0354042,21.1787055 94.9899537,23.5621611 94.9899537,26.7784599 C94.9899537,29.9942334 97.0354042,32.377689 100.142784,32.377689 C103.515383,32.377689 105.371917,29.8050702 105.371917,26.7784599 L105.371917,26.7784599 Z M109.312317,17.962932 L109.312317,34.8373353 C109.312317,38.3184626 108.213552,40.9289139 106.129687,42.4427445 C104.652037,43.5393653 102.605534,43.9938823 100.067007,43.9938823 C97.7179226,43.9938823 95.4819774,43.5015327 93.8527737,42.4043864 C92.1851553,41.2694076 91.1248047,39.5669393 91.0485016,37.5996426 L95.368312,37.5996426 C95.7098344,39.4156088 97.186958,40.5884203 100.029119,40.5884203 C103.401718,40.5884203 105.182475,39.1129478 105.182475,35.1399963 L105.182475,33.2100068 C104.121598,34.9886658 101.696737,36.0485049 99.5365686,36.0485049 C94.042216,36.0485049 90.8595855,31.9615301 90.8595855,26.7784599 C90.8595855,21.5948644 94.3453237,17.508415 99.650234,17.508415 C101.999845,17.508415 104.121598,18.5677286 105.182475,20.3463876 L105.182475,17.962932 L109.312317,17.962932 Z" id="Fill-4" fill="#2D36A8" mask="url(#mask-2)"></path>
                    <path d="M129.052677,24.5083446 L129.052677,35.5943557 L124.922309,35.5943557 L124.922309,26.399976 C124.922309,22.6545458 123.937209,21.0272173 121.057686,21.0272173 C118.36708,21.0272173 116.851015,22.8058763 116.851015,25.9081519 L116.851015,35.5943557 L112.721173,35.5943557 L112.721173,9.10888841 L116.851015,9.10888841 L116.851015,20.4218953 C117.950307,18.5302638 119.996283,17.5087829 122.611113,17.5087829 C126.85462,17.5087829 129.052677,19.8922385 129.052677,24.5083446" id="Fill-5" fill="#2D36A8" mask="url(#mask-2)"></path>
                    <path d="M143.639102,31.9616877 L143.639102,35.5941455 C142.994472,35.7076434 141.782568,35.8211413 140.569611,35.8211413 C138.561522,35.8211413 134.847927,35.5563129 134.847927,29.6160647 L134.847927,21.4053334 L131.854213,21.4053334 L131.854213,17.9625642 L134.847927,17.9625642 L134.847927,12.6276381 L138.978295,12.6276381 L138.978295,17.9625642 L143.032887,17.9625642 L143.032887,21.4053334 L138.978295,21.4053334 L138.978295,28.6697236 C138.978295,31.7346919 139.925507,32.1130182 141.554711,32.1130182 C142.199341,32.1130182 143.222329,32.0378784 143.639102,31.9616877" id="Fill-6" fill="#2D36A8" mask="url(#mask-2)"></path>
                    <path d="M147.350961,17.9627744 L151.481329,17.9627744 L151.481329,20.4218953 C152.239098,18.7950922 154.095632,17.5087829 156.407354,17.5087829 C159.627873,17.5087829 161.219189,18.9085901 161.977484,20.648891 C162.81103,18.8707575 164.894895,17.5087829 167.39606,17.5087829 C172.70097,17.5087829 173.761321,21.1407152 173.761321,24.4326793 L173.761321,35.5943557 L169.631479,35.5943557 L169.631479,25.2271645 C169.631479,22.3135267 168.494825,21.0272173 166.334657,21.0272173 C164.250792,21.0272173 162.621588,22.0486983 162.621588,26.2486455 L162.621588,35.5943557 L158.49122,35.5943557 L158.49122,25.1893319 C158.49122,22.2756941 157.430343,21.0272173 155.270701,21.0272173 C153.186309,21.0272173 151.481329,22.0486983 151.481329,26.2486455 L151.481329,35.5943557 L147.350961,35.5943557 L147.350961,17.9627744 Z" id="Fill-7" fill="#2D36A8" mask="url(#mask-2)"></path>
                    <path d="M191.302361,26.7784599 C191.302361,23.7513242 189.597381,21.1787055 186.073228,21.1787055 C182.852183,21.1787055 180.920397,23.5621611 180.920397,26.7784599 C180.920397,29.9942334 182.852183,32.377689 186.073228,32.377689 C189.597381,32.377689 191.302361,29.8050702 191.302361,26.7784599 M176.790029,26.7784599 C176.790029,21.5948644 180.086851,17.508415 185.580678,17.508415 C187.930288,17.508415 190.052042,18.5677286 191.150807,20.3463876 L191.150807,17.962932 L195.242761,17.962932 L195.242761,35.5939879 L191.150807,35.5939879 L191.150807,33.2100068 C190.052042,34.9886658 187.627181,36.0485049 185.467012,36.0485049 C179.783217,36.0485049 176.790029,31.9615301 176.790029,26.7784599" id="Fill-8" fill="#2D36A8" mask="url(#mask-2)"></path>
                    <path d="M209.867337,31.9616877 L209.867337,35.5941455 C209.222707,35.7076434 208.010803,35.8211413 206.797846,35.8211413 C204.789758,35.8211413 201.076162,35.5563129 201.076162,29.6160647 L201.076162,21.4053334 L198.082448,21.4053334 L198.082448,17.9625642 L201.076162,17.9625642 L201.076162,12.6276381 L205.206531,12.6276381 L205.206531,17.9625642 L209.261122,17.9625642 L209.261122,21.4053334 L205.206531,21.4053334 L205.206531,28.6697236 C205.206531,31.7346919 206.153742,32.1130182 207.782946,32.1130182 C208.427576,32.1130182 209.450564,32.0378784 209.867337,31.9616877" id="Fill-9" fill="#2D36A8" mask="url(#mask-2)"></path>
                    <path d="M223.73425,31.9616877 L223.73425,35.5941455 C223.08962,35.7076434 221.877715,35.8211413 220.664758,35.8211413 C218.65667,35.8211413 214.943075,35.5563129 214.943075,29.6160647 L214.943075,21.4053334 L211.949361,21.4053334 L211.949361,17.9625642 L214.943075,17.9625642 L214.943075,12.6276381 L219.073443,12.6276381 L219.073443,17.9625642 L223.128034,17.9625642 L223.128034,21.4053334 L219.073443,21.4053334 L219.073443,28.6697236 C219.073443,31.7346919 220.020655,32.1130182 221.649858,32.1130182 C222.294488,32.1130182 223.317477,32.0378784 223.73425,31.9616877" id="Fill-10" fill="#2D36A8" mask="url(#mask-2)"></path>
                    <path d="M239.269307,24.999906 C239.231418,22.2754313 237.639577,20.7626516 234.797942,20.7626516 C231.880531,20.7626516 230.137136,22.5029526 230.099247,24.999906 L239.269307,24.999906 Z M243.209706,28.1405397 L230.099247,28.1405397 C230.212913,30.9401542 232.031559,32.4539848 235.025273,32.4539848 C237.07125,32.4539848 238.284207,31.8103046 238.966199,30.44833 L243.134456,30.44833 C242.603491,33.7402941 239.269307,36.0480845 235.025273,36.0480845 C229.45567,36.0480845 226.007294,32.4918174 226.007294,26.778565 C226.007294,21.1404525 229.493032,17.5085201 234.873719,17.5085201 C239.913411,17.5085201 243.323372,20.9139822 243.323372,25.8700565 C243.323372,26.5888764 243.28601,27.1563659 243.209706,28.1405397 L243.209706,28.1405397 Z" id="Fill-11" fill="#2D36A8" mask="url(#mask-2)"></path>
                    <path d="M246.541944,17.9627744 L250.672312,17.9627744 L250.672312,21.367711 C251.316416,18.8707575 253.438169,17.7352532 255.371007,17.7352532 C256.015111,17.7352532 256.545549,17.7736113 257.00021,17.8865837 L257.00021,21.6708975 C256.356107,21.5947067 256.015111,21.5947067 255.371007,21.5947067 C252.453069,21.5947067 250.672312,23.7895247 250.672312,27.7997833 L250.672312,35.5943557 L246.541944,35.5943557 L246.541944,17.9627744 Z" id="Fill-12" fill="#2D36A8" mask="url(#mask-2)"></path>
                    <path d="M48.6805228,14.371302 L48.6547376,14.371302 C46.6256002,7.10218274 41.8432349,2.51970561 34.3802611,0.963838758 C28.2281227,-0.319317894 22.0102058,-0.316165175 15.8559625,0.939667912 C8.53191312,2.43510765 3.75165268,6.82684528 1.63621378,13.8201016 L1.61884824,13.8201016 C0.519556727,17.5261228 -0.0108816844,21.261044 -7.05983935e-16,25.0001688 C-0.0108816844,28.7387681 0.519556727,32.4736893 1.61884824,36.1797105 L1.63621378,36.1797105 C3.75165268,43.1729668 8.53191312,47.5652299 15.8559625,49.0601442 C22.0102058,50.3159773 28.2281227,50.3186045 34.3802611,49.0359733 C41.8432349,47.4801065 46.6256002,42.8976293 48.6547376,35.6290356 L48.6805228,35.6285101 C49.6529933,32.0995666 50.1344924,28.549605 50.1292728,25.0001688 C50.1344924,21.4502071 49.6529933,17.9002455 48.6805228,14.371302" id="Fill-13" fill="#2D36A8" mask="url(#mask-2)"></path>
                    <path d="M25.5614068,33.6811807 C27.2453382,34.3090972 28.5619622,35.6763264 29.1229218,37.3829983 C29.2113282,37.6515049 29.5938964,37.6578103 29.6917749,37.3924564 C30.3116722,35.7062772 31.6756567,34.3863388 33.3806373,33.817273 C33.644804,33.7289969 33.651645,33.3469924 33.3906356,33.2503091 C31.7061779,32.6218671 30.389554,31.2546379 29.8285944,29.547966 C29.740188,29.2794594 29.3576198,29.2726285 29.2597413,29.5374569 C28.6403702,31.2236362 27.2763857,32.5446254 25.5714051,33.1136912 C25.3067121,33.2019674 25.2998712,33.5834464 25.5614068,33.6811807" id="Fill-14" fill="#FF5C5A" mask="url(#mask-2)"></path>
                    <path d="M31.2374135,10.483001 L23.3313553,10.483001 C23.1661195,10.483001 23.0187755,10.5859898 22.9619428,10.7409985 L13.3645859,37.0704062 C13.2714435,37.3257764 13.461412,37.5969103 13.7339984,37.5969103 L21.6405829,37.5969103 C21.8052924,37.5969103 21.9526364,37.4939214 22.0094691,37.3389128 L31.6062997,11.0095051 C31.6999684,10.7536094 31.5105261,10.483001 31.2374135,10.483001" id="Fill-15" fill="#FFFFFF" mask="url(#mask-2)"></path>
                </g>
            </g>
        </g>
    </g>
</svg>